ffmpeg started on 2016-12-07 at 03:14:24
Report written to "Output/x264/results/ffmpeg/crowd_run_2160p50medium15000k.log"
Command line:
Tools/ffmpeg/ffmpeg -benchmark -y -i Input/y4m/crowd_run_2160p50.y4m -c:v libx264 -preset medium -b:v 15000k -an Output/x264/encoded/crowd_run_2160p50medium15000k.mkv
ffmpeg version N-82227-gdb23fde Copyright (c) 2000-2016 the FFmpeg developers
  built with gcc 5.4.0 (Ubuntu 5.4.0-6ubuntu1~16.04.2) 20160609
  configuration: --prefix=/home/jaroslav/ffmpeg_build --pkg-config-flags=--static --extra-cflags=-I/home/jaroslav/ffmpeg_build/include --extra-ldflags=-L/home/jaroslav/ffmpeg_build/lib --bindir=/home/jaroslav/bin --enable-gpl --enable-libass --enable-libfdk-aac --enable-libfreetype --enable-libmp3lame --enable-libopus --enable-libtheora --enable-libvorbis --enable-libvpx --enable-libx264 --enable-libx265 --enable-nvenc --enable-libmfx --enable-libxvid --enable-libgsm --enable-libopencore-amrnb --enable-version3 --enable-nonfree
  libavutil      55. 35.100 / 55. 35.100
  libavcodec     57. 66.101 / 57. 66.101
  libavformat    57. 57.100 / 57. 57.100
  libavdevice    57.  2.100 / 57.  2.100
  libavfilter     6. 66.100 /  6. 66.100
  libswscale      4.  3.100 /  4.  3.100
  libswresample   2.  4.100 /  2.  4.100
  libpostproc    54.  2.100 / 54.  2.100
Input #0, yuv4mpegpipe, from 'Input/y4m/crowd_run_2160p50.y4m':
  Duration: 00:00:10.00, start: 0.000000, bitrate: 4976642 kb/s
    Stream #0:0: Video: rawvideo (I420 / 0x30323449), yuv420p(progressive), 3840x2160, SAR 1:1 DAR 16:9, 50 fps, 50 tbr, 50 tbn, 50 tbc
[libx264 @ 0x30ae1c0] using SAR=1/1
[libx264 @ 0x30ae1c0] using cpu capabilities: MMX2 SSE2Fast SSSE3 SSE4.2 AVX FMA3 AVX2 LZCNT BMI2
[libx264 @ 0x30ae1c0] profile High, level 5.2
[libx264 @ 0x30ae1c0] 264 - core 148 - H.264/MPEG-4 AVC codec - Copyleft 2003-2016 - http://www.videolan.org/x264.html - options: cabac=1 ref=3 deblock=1:0:0 analyse=0x3:0x113 me=hex subme=7 psy=1 psy_rd=1.00:0.00 mixed_ref=1 me_range=16 chroma_me=1 trellis=1 8x8dct=1 cqm=0 deadzone=21,11 fast_pskip=1 chroma_qp_offset=-2 threads=6 lookahead_threads=1 sliced_threads=0 nr=0 decimate=1 interlaced=0 bluray_compat=0 constrained_intra=0 bframes=3 b_pyramid=2 b_adapt=1 b_bias=0 direct=1 weightb=1 open_gop=0 weightp=2 keyint=250 keyint_min=25 scenecut=40 intra_refresh=0 rc_lookahead=40 rc=abr mbtree=1 bitrate=15000 ratetol=1.0 qcomp=0.60 qpmin=0 qpmax=69 qpstep=4 ip_ratio=1.40 aq=1:1.00
Output #0, matroska, to 'Output/x264/encoded/crowd_run_2160p50medium15000k.mkv':
  Metadata:
    encoder         : Lavf57.57.100
    Stream #0:0: Video: h264 (libx264) (H264 / 0x34363248), yuv420p, 3840x2160 [SAR 1:1 DAR 16:9], q=-1--1, 15000 kb/s, 50 fps, 1k tbn, 50 tbc
    Metadata:
      encoder         : Lavc57.66.101 libx264
    Side data:
      cpb: bitrate max/min/avg: 0/0/15000000 buffer size: 0 vbv_delay: -1
Stream mapping:
  Stream #0:0 -> #0:0 (rawvideo (native) -> h264 (libx264))
Press [q] to stop, [?] for help
frame=    5 fps=0.0 q=0.0 size=       0kB time=00:00:00.00 bitrate=N/A speed=   0x    frame=   16 fps= 14 q=0.0 size=       0kB time=00:00:00.00 bitrate=N/A speed=   0x    frame=   31 fps= 19 q=0.0 size=       0kB time=00:00:00.00 bitrate=N/A speed=   0x    frame=   41 fps= 19 q=0.0 size=       0kB time=00:00:00.00 bitrate=N/A speed=   0x    frame=   47 fps= 10 q=0.0 size=       0kB time=00:00:00.00 bitrate=N/A speed=   0x    frame=   52 fps= 10 q=31.0 size=       1kB time=-00:00:00.01 bitrate=N/A speed=N/A    frame=   54 fps=9.6 q=32.0 size=       1kB time=00:00:00.02 bitrate= 279.6kbits/s speed=0.00375x    frame=   57 fps=9.1 q=34.0 size=       1kB time=00:00:00.08 bitrate=  72.5kbits/s speed=0.0129x    frame=   63 fps=9.2 q=48.0 size=       1kB time=00:00:00.20 bitrate=  29.2kbits/s speed=0.0294x    frame=   68 fps=9.2 q=48.0 size=       1kB time=00:00:00.30 bitrate=  19.5kbits/s speed=0.0408x    frame=   74 fps=9.3 q=47.0 size=       1kB time=00:00:00.42 bitrate=  13.9kbits/s speed=0.0528x    frame=   81 fps=9.4 q=47.0 size=       1kB time=00:00:00.56 bitrate=  10.5kbits/s speed=0.0649x    frame=   88 fps=9.6 q=46.0 size=       1kB time=00:00:00.70 bitrate=   8.4kbits/s speed=0.0765x    frame=   93 fps=9.6 q=46.0 size=       1kB time=00:00:00.80 bitrate=   7.3kbits/s speed=0.0825x    frame=   99 fps=9.7 q=45.0 size=       1kB time=00:00:00.92 bitrate=   6.4kbits/s speed=0.0902x    frame=  103 fps=9.6 q=45.0 size=       1kB time=00:00:01.00 bitrate=   5.9kbits/s speed=0.0933x    frame=  109 fps=9.6 q=45.0 size=       1kB time=00:00:01.12 bitrate=   5.2kbits/s speed=0.0987x    frame=  117 fps=9.7 q=45.0 size=       1kB time=00:00:01.28 bitrate=   4.6kbits/s speed=0.106x    frame=  122 fps=9.7 q=45.0 size=       1kB time=00:00:01.38 bitrate=   4.3kbits/s speed=0.109x    frame=  129 fps=9.7 q=44.0 size=       1kB time=00:00:01.52 bitrate=   3.9kbits/s speed=0.114x    frame=  134 fps=9.7 q=44.0 size=       1kB time=00:00:01.62 bitrate=   3.6kbits/s speed=0.117x    frame=  140 fps=9.7 q=44.0 size=       1kB time=00:00:01.74 bitrate=   3.4kbits/s speed=0.121x    frame=  146 fps=9.7 q=44.0 size=       1kB time=00:00:01.86 bitrate=   3.2kbits/s speed=0.124x    frame=  152 fps=9.8 q=44.0 size=       1kB time=00:00:01.98 bitrate=   3.0kbits/s speed=0.127x    frame=  157 fps=9.7 q=44.0 size=       1kB time=00:00:02.08 bitrate=   2.8kbits/s speed=0.128x    frame=  164 fps=9.8 q=44.0 size=       1kB time=00:00:02.22 bitrate=   2.6kbits/s speed=0.132x    frame=  169 fps=9.8 q=43.0 size=       1kB time=00:00:02.32 bitrate=   2.5kbits/s speed=0.134x    frame=  174 fps=9.7 q=43.0 size=    5138kB time=00:00:02.42 bitrate=17384.9kbits/s speed=0.135x    frame=  181 fps=9.6 q=43.0 size=    5138kB time=00:00:02.56 bitrate=16434.6kbits/s speed=0.137x    frame=  185 fps=9.6 q=43.0 size=    5138kB time=00:00:02.64 bitrate=15936.7kbits/s speed=0.137x    frame=  191 fps=9.7 q=43.0 size=    5138kB time=00:00:02.76 bitrate=15244.1kbits/s speed=0.14x    frame=  197 fps=9.6 q=43.0 size=    5138kB time=00:00:02.88 bitrate=14609.1kbits/s speed=0.141x    frame=  202 fps=9.6 q=43.0 size=    5138kB time=00:00:02.98 bitrate=14119.1kbits/s speed=0.142x    frame=  209 fps=9.6 q=43.0 size=    5138kB time=00:00:03.12 bitrate=13485.7kbits/s speed=0.144x    frame=  215 fps=9.7 q=43.0 size=    5138kB time=00:00:03.24 bitrate=12986.4kbits/s speed=0.146x    frame=  218 fps=9.6 q=43.0 size=    5138kB time=00:00:03.30 bitrate=12750.4kbits/s speed=0.145x    frame=  225 fps=9.6 q=43.0 size=    5138kB time=00:00:03.44 bitrate=12231.6kbits/s speed=0.146x    frame=  232 fps=9.6 q=43.0 size=    5138kB time=00:00:03.58 bitrate=11753.4kbits/s speed=0.149x    frame=  237 fps=9.6 q=43.0 size=    5138kB time=00:00:03.68 bitrate=11434.1kbits/s speed=0.149x    frame=  241 fps=9.6 q=43.0 size=    5138kB time=00:00:03.76 bitrate=11190.9kbits/s speed=0.149x    frame=  248 fps=9.6 q=43.0 size=    5138kB time=00:00:03.90 bitrate=10789.3kbits/s speed=0.151x    frame=  252 fps=9.6 q=43.0 size=    5138kB time=00:00:03.98 bitrate=10572.5kbits/s speed=0.151x    frame=  258 fps=9.5 q=43.0 size=    5138kB time=00:00:04.10 bitrate=10263.1kbits/s speed=0.151x    frame=  265 fps=9.5 q=43.0 size=    5138kB time=00:00:04.24 bitrate=9924.3kbits/s speed=0.152x    frame=  272 fps=9.6 q=43.0 size=    5138kB time=00:00:04.38 bitrate=9607.2kbits/s speed=0.154x    frame=  274 fps=9.4 q=43.0 size=    5138kB time=00:00:04.42 bitrate=9520.2kbits/s speed=0.152x    frame=  281 fps=9.5 q=43.0 size=    5138kB time=00:00:04.56 bitrate=9228.0kbits/s speed=0.153x    frame=  286 fps=9.4 q=43.0 size=    5138kB time=00:00:04.66 bitrate=9030.0kbits/s speed=0.154x    frame=  293 fps=9.4 q=43.0 size=    5138kB time=00:00:04.80 bitrate=8766.7kbits/s speed=0.154x    frame=  296 fps=9.2 q=40.0 size=    5138kB time=00:00:04.86 bitrate=8658.5kbits/s speed=0.151x    frame=  305 fps=9.3 q=43.0 size=    9524kB time=00:00:05.04 bitrate=15477.3kbits/s speed=0.154x    frame=  308 fps=9.3 q=43.0 size=    9524kB time=00:00:05.10 bitrate=15295.2kbits/s speed=0.154x    frame=  314 fps=9.3 q=43.0 size=    9524kB time=00:00:05.22 bitrate=14943.7kbits/s speed=0.155x    frame=  319 fps=9.3 q=43.0 size=    9524kB time=00:00:05.32 bitrate=14662.9kbits/s speed=0.155x    frame=  324 fps=9.3 q=43.0 size=    9524kB time=00:00:05.42 bitrate=14392.4kbits/s speed=0.155x    frame=  329 fps=9.3 q=43.0 size=    9524kB time=00:00:05.52 bitrate=14131.7kbits/s speed=0.156x    frame=  335 fps=9.3 q=43.0 size=    9524kB time=00:00:05.64 bitrate=13831.1kbits/s speed=0.156x    frame=  340 fps=9.3 q=43.0 size=    9524kB time=00:00:05.74 bitrate=13590.2kbits/s speed=0.157x    frame=  344 fps=9.3 q=43.0 size=    9524kB time=00:00:05.82 bitrate=13403.4kbits/s speed=0.157x    frame=  350 fps=9.3 q=43.0 size=    9524kB time=00:00:05.94 bitrate=13132.6kbits/s speed=0.157x    frame=  356 fps=9.3 q=43.0 size=    9524kB time=00:00:06.06 bitrate=12872.6kbits/s speed=0.158x    frame=  362 fps=9.3 q=43.0 size=    9524kB time=00:00:06.18 bitrate=12622.7kbits/s speed=0.159x    frame=  367 fps=9.3 q=43.0 size=    9524kB time=00:00:06.28 bitrate=12421.8kbits/s speed=0.159x    frame=  372 fps=9.3 q=43.0 size=    9524kB time=00:00:06.38 bitrate=12227.1kbits/s speed=0.159x    frame=  379 fps=9.3 q=43.0 size=    9524kB time=00:00:06.52 bitrate=11964.6kbits/s speed=0.159x    frame=  384 fps=9.3 q=43.0 size=    9524kB time=00:00:06.62 bitrate=11783.9kbits/s speed=0.16x    frame=  389 fps=9.3 q=43.0 size=    9524kB time=00:00:06.72 bitrate=11608.5kbits/s speed=0.16x    frame=  395 fps=9.3 q=43.0 size=    9524kB time=00:00:06.84 bitrate=11404.9kbits/s speed=0.161x    frame=  399 fps=9.2 q=43.0 size=    9524kB time=00:00:06.92 bitrate=11273.1kbits/s speed=0.16x    frame=  406 fps=9.3 q=43.0 size=    9524kB time=00:00:07.06 bitrate=11049.6kbits/s speed=0.162x    frame=  409 fps=9.3 q=43.0 size=    9524kB time=00:00:07.12 bitrate=10956.5kbits/s speed=0.161x    frame=  415 fps=9.2 q=43.0 size=    9524kB time=00:00:07.24 bitrate=10774.9kbits/s speed=0.161x    frame=  421 fps=9.3 q=43.0 size=    9524kB time=00:00:07.36 bitrate=10599.2kbits/s speed=0.162x    frame=  427 fps=9.3 q=43.0 size=    9524kB time=00:00:07.48 bitrate=10429.2kbits/s speed=0.162x    frame=  432 fps=9.2 q=43.0 size=    9524kB time=00:00:07.58 bitrate=10291.7kbits/s speed=0.162x    frame=  439 fps=9.3 q=43.0 size=    9524kB time=00:00:07.72 bitrate=10105.0kbits/s speed=0.163x    frame=  445 fps=9.2 q=43.0 size=   14652kB time=00:00:07.84 bitrate=15308.2kbits/s speed=0.163x    frame=  449 fps=9.2 q=42.0 size=   14652kB time=00:00:07.92 bitrate=15153.6kbits/s speed=0.163x    frame=  455 fps=9.2 q=42.0 size=   14652kB time=00:00:08.04 bitrate=14927.4kbits/s speed=0.163x    frame=  461 fps=9.2 q=42.0 size=   14652kB time=00:00:08.16 bitrate=14707.9kbits/s speed=0.163x    frame=  467 fps=9.2 q=42.0 size=   14652kB time=00:00:08.28 bitrate=14494.8kbits/s speed=0.164x    frame=  471 fps=9.2 q=42.0 size=   14652kB time=00:00:08.36 bitrate=14356.1kbits/s speed=0.164x    frame=  476 fps=9.2 q=42.0 size=   14652kB time=00:00:08.46 bitrate=14186.4kbits/s speed=0.164x    frame=  481 fps=9.2 q=42.0 size=   14652kB time=00:00:08.56 bitrate=14020.7kbits/s speed=0.164x    frame=  487 fps=9.2 q=42.0 size=   14652kB time=00:00:08.68 bitrate=13826.9kbits/s speed=0.165x    frame=  493 fps=9.3 q=42.0 size=   14652kB time=00:00:08.80 bitrate=13638.4kbits/s speed=0.165x    frame=  496 fps=9.2 q=42.0 size=   14652kB time=00:00:08.86 bitrate=13546.0kbits/s speed=0.165x    frame=  500 fps=8.5 q=-1.0 Lsize=   18286kB time=00:00:09.94 bitrate=15068.6kbits/s speed=0.17x    
video:18281kB audio:0kB subtitle:0kB other streams:0kB global headers:0kB muxing overhead: 0.025721%
bench: utime=206.260s
bench: maxrss=1839696kB
[libx264 @ 0x30ae1c0] frame I:2     Avg QP:32.08  size:562448
[libx264 @ 0x30ae1c0] frame P:126   Avg QP:41.56  size: 69418
[libx264 @ 0x30ae1c0] frame B:372   Avg QP:43.62  size: 23784
[libx264 @ 0x30ae1c0] consecutive B-frames:  0.8%  0.0%  0.0% 99.2%
[libx264 @ 0x30ae1c0] mb I  I16..4: 10.9% 74.6% 14.5%
[libx264 @ 0x30ae1c0] mb P  I16..4:  1.7%  7.5%  0.2%  P16..4: 34.4%  6.4%  3.1%  0.0%  0.0%    skip:46.6%
[libx264 @ 0x30ae1c0] mb B  I16..4:  0.0%  0.2%  0.0%  B16..8: 42.4%  1.7%  0.1%  direct: 0.3%  skip:55.1%  L0:44.6% L1:54.7% BI: 0.6%
[libx264 @ 0x30ae1c0] final ratefactor: 34.40
[libx264 @ 0x30ae1c0] 8x8 transform intra:79.2% inter:92.3%
[libx264 @ 0x30ae1c0] coded y,uvDC,uvAC intra: 40.4% 62.7% 24.9% inter: 5.7% 6.5% 0.1%
[libx264 @ 0x30ae1c0] i16 v,h,dc,p: 37% 23%  7% 34%
[libx264 @ 0x30ae1c0] i8 v,h,dc,ddl,ddr,vr,hd,vl,hu: 17% 11% 23%  8%  8%  9%  8%  9%  7%
[libx264 @ 0x30ae1c0] i4 v,h,dc,ddl,ddr,vr,hd,vl,hu: 21% 16% 16%  9%  8%  9%  8%  7%  6%
[libx264 @ 0x30ae1c0] i8c dc,h,v,p: 71% 10% 16%  4%
[libx264 @ 0x30ae1c0] Weighted P-Frames: Y:1.6% UV:0.8%
[libx264 @ 0x30ae1c0] ref P L0: 67.8% 11.2% 15.3%  5.6%  0.1%
[libx264 @ 0x30ae1c0] ref B L0: 94.1%  5.0%  0.9%
[libx264 @ 0x30ae1c0] ref B L1: 98.9%  1.1%
[libx264 @ 0x30ae1c0] kb/s:14975.28
